<svg width="88" height="88" viewBox="0 0 88 88" fill="none" xmlns="http://www.w3.org/2000/svg">
<path fill-rule="evenodd" clip-rule="evenodd" d="M22.6403 23.6402C28.1726 18.1079 35.676 14.9999 43.4999 14.9999C51.3238 14.9999 58.8272 18.1079 64.3595 23.6402C69.8918 29.1726 72.9999 36.676 72.9999 44.4999C72.9999 52.3237 69.8918 59.8272 64.3595 65.3595C58.8272 70.8918 51.3238 73.9998 43.4999 73.9998C35.676 73.9998 28.1726 70.8918 22.6403 65.3595C17.108 59.8272 14 52.3237 14 44.4999C14 36.676 17.108 29.1726 22.6403 23.6402ZM43.4999 18.9999C36.7369 18.9999 30.2509 21.6865 25.4687 26.4687C20.6866 31.2508 18 37.7369 18 44.4999C18 51.2629 20.6866 57.7489 25.4687 62.5311C30.2509 67.3132 36.7369 69.9998 43.4999 69.9998C50.2629 69.9998 56.7489 67.3132 61.5311 62.5311C66.3133 57.7489 68.9999 51.2629 68.9999 44.4999C68.9999 37.7369 66.3133 31.2508 61.5311 26.4687C56.7489 21.6865 50.2629 18.9999 43.4999 18.9999Z" fill="#DC0028"/>
<path fill-rule="evenodd" clip-rule="evenodd" d="M35.6662 7C35.6662 5.89543 36.5616 5 37.6662 5H49.3328C50.4374 5 51.3328 5.89543 51.3328 7C51.3328 8.10457 50.4374 9 49.3328 9H37.6662C36.5616 9 35.6662 8.10457 35.6662 7Z" fill="#DC0028"/>
<path fill-rule="evenodd" clip-rule="evenodd" d="M43.5 5C44.6046 5 45.5 5.89543 45.5 7V17C45.5 18.1046 44.6045 18.9999 43.4999 18.9999C42.3954 18.9999 41.5 18.1046 41.5 17V7C41.5 5.89543 42.3954 5 43.5 5Z" fill="#DC0028"/>
<path fill-rule="evenodd" clip-rule="evenodd" d="M22.5215 12.4457C23.3026 13.2268 23.3026 14.4931 22.5215 15.2742L14.2749 23.5208C13.4938 24.3019 12.2275 24.3019 11.4465 23.5208C10.6654 22.7398 10.6654 21.4734 11.4465 20.6924L19.6931 12.4457C20.4742 11.6647 21.7405 11.6647 22.5215 12.4457Z" fill="#DC0028"/>
<path fill-rule="evenodd" clip-rule="evenodd" d="M15.5687 16.5691C16.3498 15.7881 17.6161 15.7881 18.3972 16.5691L25.4672 23.6391C26.2482 24.4201 26.2482 25.6865 25.4672 26.4675C24.6861 27.2486 23.4198 27.2486 22.6387 26.4675L15.5687 19.3975C14.7877 18.6165 14.7877 17.3502 15.5687 16.5691Z" fill="#DC0028"/>
<path fill-rule="evenodd" clip-rule="evenodd" d="M6 36.6665C7.10457 36.6665 8 37.562 8 38.6665V50.3332C8 51.4377 7.10457 52.3332 6 52.3332C4.89543 52.3332 4 51.4377 4 50.3332V38.6665C4 37.562 4.89543 36.6665 6 36.6665Z" fill="#DC0028"/>
<path fill-rule="evenodd" clip-rule="evenodd" d="M4 44.4999C4 43.3954 4.89543 42.4999 6 42.4999H16C17.1046 42.4999 18 43.3953 18 44.4999C18 45.6044 17.1046 46.4999 16 46.4999H6C4.89543 46.4999 4 45.6045 4 44.4999Z" fill="#DC0028"/>
<path fill-rule="evenodd" clip-rule="evenodd" d="M11.4465 65.479C12.2275 64.6979 13.4938 64.6979 14.2749 65.479L22.5215 73.7256C23.3026 74.5067 23.3026 75.773 22.5215 76.554C21.7405 77.3351 20.4742 77.3351 19.6931 76.554L11.4465 68.3074C10.6654 67.5264 10.6654 66.26 11.4465 65.479Z" fill="#DC0028"/>
<path fill-rule="evenodd" clip-rule="evenodd" d="M25.4672 62.5324C26.2482 63.3134 26.2482 64.5797 25.4672 65.3608L18.3972 72.4308C17.6161 73.2118 16.3498 73.2118 15.5687 72.4308C14.7877 71.6497 14.7877 70.3834 15.5687 69.6024L22.6387 62.5324C23.4198 61.7513 24.6861 61.7513 25.4672 62.5324Z" fill="#DC0028"/>
<path fill-rule="evenodd" clip-rule="evenodd" d="M35.6662 81.9999C35.6662 80.8953 36.5616 79.9999 37.6662 79.9999H49.3328C50.4374 79.9999 51.3328 80.8953 51.3328 81.9999C51.3328 83.1044 50.4374 83.9999 49.3328 83.9999H37.6662C36.5616 83.9999 35.6662 83.1044 35.6662 81.9999Z" fill="#DC0028"/>
<path fill-rule="evenodd" clip-rule="evenodd" d="M43.4999 69.9998C44.6045 69.9998 45.5 70.8953 45.5 71.9999V81.9999C45.5 83.1045 44.6046 83.9999 43.5 83.9999C42.3954 83.9999 41.5 83.1045 41.5 81.9999V71.9999C41.5 70.8953 42.3954 69.9998 43.4999 69.9998Z" fill="#DC0028"/>
<path fill-rule="evenodd" clip-rule="evenodd" d="M75.5547 65.479C76.3357 66.26 76.3357 67.5264 75.5547 68.3074L67.308 76.554C66.527 77.3351 65.2606 77.3351 64.4796 76.554C63.6985 75.773 63.6985 74.5067 64.4796 73.7256L72.7262 65.479C73.5073 64.6979 74.7736 64.6979 75.5547 65.479Z" fill="#DC0028"/>
<path fill-rule="evenodd" clip-rule="evenodd" d="M61.5326 62.5324C62.3136 61.7513 63.5799 61.7513 64.361 62.5324L71.431 69.6024C72.212 70.3834 72.212 71.6497 71.4309 72.4308C70.6499 73.2118 69.3836 73.2118 68.6025 72.4308L61.5326 65.3608C60.7515 64.5797 60.7515 63.3134 61.5326 62.5324Z" fill="#DC0028"/>
<path fill-rule="evenodd" clip-rule="evenodd" d="M81 36.6665C82.1046 36.6665 83 37.562 83 38.6665V50.3332C83 51.4377 82.1046 52.3332 81 52.3332C79.8954 52.3332 79 51.4377 79 50.3332V38.6665C79 37.562 79.8954 36.6665 81 36.6665Z" fill="#DC0028"/>
<path fill-rule="evenodd" clip-rule="evenodd" d="M68.9999 44.4999C68.9999 43.3953 69.8955 42.4999 71 42.4999H81C82.1046 42.4999 83 43.3954 83 44.4999C83 45.6045 82.1046 46.4999 81 46.4999H71C69.8955 46.4999 68.9999 45.6044 68.9999 44.4999Z" fill="#DC0028"/>
<path fill-rule="evenodd" clip-rule="evenodd" d="M64.4796 12.4457C65.2606 11.6647 66.527 11.6647 67.308 12.4457L75.5547 20.6924C76.3357 21.4734 76.3357 22.7398 75.5547 23.5208C74.7736 24.3019 73.5073 24.3019 72.7262 23.5208L64.4796 15.2742C63.6985 14.4931 63.6985 13.2268 64.4796 12.4457Z" fill="#DC0028"/>
<path fill-rule="evenodd" clip-rule="evenodd" d="M71.4309 16.5691C72.212 17.3501 72.212 18.6165 71.431 19.3975L64.361 26.4675C63.5799 27.2486 62.3136 27.2486 61.5326 26.4675C60.7515 25.6865 60.7515 24.4201 61.5326 23.6391L68.6025 16.5691C69.3836 15.7881 70.6499 15.7881 71.4309 16.5691Z" fill="#DC0028"/>
<path fill-rule="evenodd" clip-rule="evenodd" d="M51.3657 40.9193C52.4306 39.8544 53.8749 39.2562 55.3808 39.2562C56.8867 39.2562 58.331 39.8544 59.3959 40.9193C60.4607 41.9842 61.059 43.4284 61.059 44.9344C61.059 46.4403 60.4607 47.8846 59.3959 48.9494C58.331 50.0143 56.8867 50.6125 55.3808 50.6125C53.8749 50.6125 52.4306 50.0143 51.3657 48.9494C50.3009 47.8846 49.7026 46.4403 49.7026 44.9344C49.7026 43.4284 50.3009 41.9842 51.3657 40.9193ZM55.3808 43.2562C54.9357 43.2562 54.5089 43.433 54.1942 43.7477C53.8794 44.0624 53.7026 44.4893 53.7026 44.9344C53.7026 45.3794 53.8794 45.8063 54.1942 46.121C54.5089 46.4357 54.9357 46.6125 55.3808 46.6125C55.8259 46.6125 56.2527 46.4357 56.5674 46.121C56.8821 45.8063 57.059 45.3794 57.059 44.9344C57.059 44.4893 56.8821 44.0624 56.5674 43.7477C56.2527 43.433 55.8259 43.2562 55.3808 43.2562Z" fill="#DC0028"/>
<path fill-rule="evenodd" clip-rule="evenodd" d="M40.0494 54.3822C40.9418 53.4898 42.1522 52.9884 43.4142 52.9884C44.6763 52.9884 45.8867 53.4898 46.7791 54.3822C47.6715 55.2746 48.1728 56.485 48.1728 57.7471C48.1728 59.0091 47.6715 60.2195 46.7791 61.1119C45.8867 62.0044 44.6763 62.5057 43.4142 62.5057C42.1522 62.5057 40.9418 62.0044 40.0494 61.1119C39.1569 60.2195 38.6556 59.0091 38.6556 57.7471C38.6556 56.485 39.1569 55.2746 40.0494 54.3822ZM43.4142 56.9884C43.213 56.9884 43.0201 57.0684 42.8778 57.2106C42.7355 57.3529 42.6556 57.5459 42.6556 57.7471C42.6556 57.9483 42.7355 58.1413 42.8778 58.2835C43.0201 58.4258 43.213 58.5057 43.4142 58.5057C43.6154 58.5057 43.8084 58.4258 43.9506 58.2835C44.0929 58.1413 44.1728 57.9483 44.1728 57.7471C44.1728 57.5459 44.0929 57.3529 43.9506 57.2106C43.8084 57.0684 43.6154 56.9884 43.4142 56.9884Z" fill="#DC0028"/>
<path fill-rule="evenodd" clip-rule="evenodd" d="M29.6277 30.6276C31.0968 29.1586 33.0892 28.3333 35.1667 28.3333C37.2443 28.3333 39.2367 29.1586 40.7057 30.6276C42.1748 32.0967 43.0001 34.0891 43.0001 36.1666C43.0001 38.2441 42.1748 40.2366 40.7057 41.7056C39.2367 43.1747 37.2443 43.9999 35.1667 43.9999C33.0892 43.9999 31.0968 43.1747 29.6277 41.7056C28.1587 40.2366 27.3334 38.2441 27.3334 36.1666C27.3334 34.0891 28.1587 32.0967 29.6277 30.6276ZM35.1667 32.3333C34.1501 32.3333 33.1751 32.7372 32.4562 33.4561C31.7373 34.1749 31.3334 35.15 31.3334 36.1666C31.3334 37.1833 31.7373 38.1583 32.4562 38.8772C33.1751 39.5961 34.1501 39.9999 35.1667 39.9999C36.1834 39.9999 37.1584 39.5961 37.8773 38.8772C38.5962 38.1583 39.0001 37.1833 39.0001 36.1666C39.0001 35.15 38.5962 34.1749 37.8773 33.4561C37.1584 32.7372 36.1834 32.3333 35.1667 32.3333Z" fill="#DC0028"/>
</svg>
